<svg xmlns="http://www.w3.org/2000/svg" viewBox="0 0 800 320">
  <defs>
    <linearGradient id="headerGrad" x1="0%" y1="0%" x2="100%" y2="0%">
      <stop offset="0%" style="stop-color:#667eea;stop-opacity:1" />
      <stop offset="100%" style="stop-color:#764ba2;stop-opacity:1" />
    </linearGradient>
    <linearGradient id="psvaeGrad" x1="0%" y1="0%" x2="100%" y2="100%">
      <stop offset="0%" style="stop-color:#51cf66;stop-opacity:0.3" />
      <stop offset="100%" style="stop-color:#40c057;stop-opacity:0.3" />
    </linearGradient>
  </defs>
  
  <!-- Background -->
  <rect width="800" height="320" fill="#1a1a2e" rx="15"/>
  
  <!-- Title -->
  <text x="400" y="35" font-family="Arial, sans-serif" font-size="20" font-weight="bold" fill="#fff" text-anchor="middle">Latent Space Comparison</text>
  
  <!-- Table -->
  <rect x="50" y="55" width="700" height="230" rx="10" fill="#2d2d44" stroke="#4a4a6a" stroke-width="2"/>
  
  <!-- Header row -->
  <rect x="50" y="55" width="700" height="35" rx="10" fill="url(#headerGrad)"/>
  <rect x="50" y="75" width="700" height="15" fill="url(#headerGrad)"/>
  
  <g font-family="Arial, sans-serif" font-size="13" fill="#fff" font-weight="bold" text-anchor="middle">
    <text x="150" y="78">Property</text>
    <text x="310" y="78">Standard VAE</text>
    <text x="460" y="78">RAE</text>
    <text x="630" y="78">PS-VAE (Ours)</text>
  </g>
  
  <!-- Highlight PS-VAE column -->
  <rect x="545" y="90" width="170" height="195" fill="url(#psvaeGrad)" rx="5"/>
  
  <!-- Row dividers -->
  <g stroke="#4a4a6a" stroke-width="1">
    <line x1="50" y1="120" x2="750" y2="120"/>
    <line x1="50" y1="155" x2="750" y2="155"/>
    <line x1="50" y1="190" x2="750" y2="190"/>
    <line x1="50" y1="225" x2="750" y2="225"/>
    <line x1="50" y1="260" x2="750" y2="260"/>
  </g>
  
  <!-- Column dividers -->
  <g stroke="#4a4a6a" stroke-width="1">
    <line x1="230" y1="55" x2="230" y2="285"/>
    <line x1="385" y1="55" x2="385" y2="285"/>
    <line x1="545" y1="55" x2="545" y2="285"/>
  </g>
  
  <!-- Data rows -->
  <g font-family="Arial, sans-serif" font-size="12" text-anchor="middle">
    <!-- Row 1: Channels -->
    <text x="150" y="108" fill="#888">Channels</text>
    <text x="310" y="108" fill="#e0e0e0">4-8</text>
    <text x="460" y="108" fill="#e0e0e0">1024+</text>
    <text x="630" y="108" fill="#51cf66" font-weight="bold">✓ 96</text>
    
    <!-- Row 2: Spatial -->
    <text x="150" y="143" fill="#888">Spatial</text>
    <text x="310" y="143" fill="#e0e0e0">32×32</text>
    <text x="460" y="143" fill="#e0e0e0">16×16</text>
    <text x="630" y="143" fill="#e0e0e0">16×16</text>
    
    <!-- Row 3: KL Regularization -->
    <text x="150" y="178" fill="#888">KL Regular.</text>
    <text x="310" y="178" fill="#51cf66">✓</text>
    <text x="460" y="178" fill="#ff6b6b">✗</text>
    <text x="630" y="178" fill="#51cf66" font-weight="bold">✓ Yes</text>
    
    <!-- Row 4: Semantic -->
    <text x="150" y="213" fill="#888">Semantic</text>
    <text x="310" y="213" fill="#ff6b6b">✗</text>
    <text x="460" y="213" fill="#51cf66">✓</text>
    <text x="630" y="213" fill="#51cf66" font-weight="bold">✓ Yes</text>
    
    <!-- Row 5: Pixel Quality -->
    <text x="150" y="248" fill="#888">Pixel Qual.</text>
    <text x="310" y="248" fill="#51cf66">✓</text>
    <text x="460" y="248" fill="#ff6b6b">✗</text>
    <text x="630" y="248" fill="#51cf66" font-weight="bold">✓ Yes</text>
    
    <!-- Row 6: On-manifold -->
    <text x="150" y="278" fill="#888">On-manifold</text>
    <text x="310" y="278" fill="#51cf66">✓</text>
    <text x="460" y="278" fill="#ff6b6b">✗</text>
    <text x="630" y="278" fill="#51cf66" font-weight="bold">✓ Yes</text>
  </g>
  
  <!-- Footer note -->
  <text x="400" y="305" font-family="Arial, sans-serif" font-size="12" fill="#51cf66" text-anchor="middle" font-style="italic">💡 PS-VAE: Best of both worlds - compact, semantic, AND pixel-perfect!</text>
</svg>

